{"title":"Magnate Y Valentino Ft. Lui-G - Rompiendo La Cama (h264/mp4)","uid":7789991,"size":141999550,"categoryP":"video","categoryS":"music_videos","magnet":"?xt=urn:btih:5e2532fb97d6089b5d0a2af2fe96449690d8fa61&amp;dn=Magnate+Y+Valentino+Ft.+Lui-G+-+Rompiendo+La+Cama+%28h264%2Fmp4%29&amp;tr=udp%3A%2F%2Ftracker.openbittorrent.com%3A80&amp;tr=udp%3A%2F%2Fopen.demonii.com%3A1337&amp;tr=udp%3A%2F%2Ftracker.coppersurfer.tk%3A6969&amp;tr=udp%3A%2F%2Fexodus.desync.com%3A6969","seeders":1,"leechers":1,"uploader":"MusicVideos-HQ","files":1,"time":1351995423,"description":"General\n\nFormat                         : MPEG-4\nFormat profile                 : Base Media\nCodec ID                       : isom\nFile size                      : 135 MiB\nDuration                       : 4mn 9s\nOverall bit rate mode          : Variable\nOverall bit rate               : 4 545 Kbps\nEncoded date                   : UTC 2012-10-22 04:14:07\nTagged date                    : UTC 2012-10-22 04:14:07\n\nVideo\nID                             : 1\nFormat                         : AVC\nFormat/Info                    : Advanced Video Codec\nFormat profile                 : &lt;a class=&quot;__cf_email__&quot; href=&quot;/cdn-cgi/l/email-protection&quot; data-cfemail=&quot;7931101e1139354a5749&quot;&gt;[email&amp;#160;protected]&lt;/a&gt;&lt;script cf-hash='f9e31' type=&quot;text/javascript&quot;&gt;\n/* &lt;![CDATA[ */!function(){try{var t=&quot;currentScript&quot;in document?document.currentScript:function(){for(var t=document.getElementsByTagName(&quot;script&quot;),e=t.length;e--;)if(t[e].getAttribute(&quot;cf-hash&quot;))return t[e]}();if(t&amp;&amp;t.previousSibling){var e,r,n,i,c=t.previousSibling,a=c.getAttribute(&quot;data-cfemail&quot;);if(a){for(e=&quot;&quot;,r=parseInt(a.substr(0,2),16),n=2;a.length-n;n+=2)i=parseInt(a.substr(n,2),16)^r,e+=String.fromCharCode(i);e=document.createTextNode(e),c.parentNode.replaceChild(e,c)}}}catch(u){}}();/* ]]&gt; */&lt;/script&gt;\nFormat settings, CABAC         : Yes\nFormat settings, ReFrames      : 2 frames\nCodec ID                       : avc1\nCodec ID/Info                  : Advanced Video Coding\nDuration                       : 4mn 9s\nBit rate                       : 4 349 Kbps\nMaximum bit rate               : 9 302 Kbps\nWidth                          : 720 pixels\nHeight                         : 480 pixels\nDisplay aspect ratio           : 16:9\nOriginal display aspect ratio  : 16:9\nFrame rate mode                : Constant\nFrame rate                     : 24.000 fps\nStandard                       : NTSC\nColor space                    : YUV\nChroma subsampling             : 4:2:0\nBit depth                      : 8 bits\nScan type                      : Progressive\nBits/(Pixel*Frame)             : 0.524\nStream size                    : 130 MiB (96%)\n\n\nAudio\nID                             : 2\nFormat                         : AAC\nFormat/Info                    : Advanced Audio Codec\nFormat profile                 : LC\nCodec ID                       : 40\nDuration                       : 4mn 9s\nBit rate mode                  : Variable\nBit rate                       : 192 Kbps\nMaximum bit rate               : 214 Kbps\nChannel(s)                     : 2 channels\nChannel positions              : Front: L R\nSampling rate                  : 44.1 KHz\nCompression mode               : Lossy\nStream size                    : 5.74 MiB (4%)","torrent":{"xt":"urn:btih:5e2532fb97d6089b5d0a2af2fe96449690d8fa61","amp;dn":"Magnate+Y+Valentino+Ft.+Lui-G+-+Rompiendo+La+Cama+%28h264%2Fmp4%29","amp;tr":["udp%3A%2F%2Ftracker.openbittorrent.com%3A80","udp%3A%2F%2Fopen.demonii.com%3A1337","udp%3A%2F%2Ftracker.coppersurfer.tk%3A6969","udp%3A%2F%2Fexodus.desync.com%3A6969"],"infoHash":"5e2532fb97d6089b5d0a2af2fe96449690d8fa61","infoHashBuffer":{"type":"Buffer","data":[94,37,50,251,151,214,8,155,93,10,42,242,254,150,68,150,144,216,250,97]},"announce":[],"urlList":[]}}